<?xml version="1.0" encoding="utf-8"?>
<!-- Generator: Adobe Illustrator 18.1.1, SVG Export Plug-In . SVG Version: 6.00 Build 0)  -->
<svg version="1.1" id="Layer_1" xmlns="http://www.w3.org/2000/svg" xmlns:xlink="http://www.w3.org/1999/xlink" x="0px" y="0px"
	 viewBox="0 0 146.1 146.1" enable-background="new 0 0 146.1 146.1" xml:space="preserve">
<g id="Shape_1_copy_3">
	<g>
		<circle fill-rule="evenodd" clip-rule="evenodd" fill="#EBBC1E" cx="73.1" cy="72.9" r="73.1"/>
	</g>
</g>
<g id="Shape_5">
	<g>
		<path fill-rule="evenodd" clip-rule="evenodd" fill="#FFFFFF" d="M109.6,66.1H41.5c-2.5,0-4.5,2-4.5,4.5v2.3
			c0,2.4,1.8,4.3,4.2,4.5l7.2,25c2.3,4.5,4.5,4.5,6.8,4.5H96c2.3,0,4.5,0,6.8-4.5l7.2-25c2.3-0.2,4.2-2.1,4.2-4.5v-2.3
			C114.2,68.1,112.1,66.1,109.6,66.1z M60.5,100.1h-1.1c-2.5,0-5-1.9-5.5-4.3l-3.2-14.1c-0.5-2.4,1.1-4.3,3.6-4.3h1.1
			c2.5,0,5,1.9,5.5,4.3l3.2,14.1C64.7,98.2,63.1,100.1,60.5,100.1z M80.1,95.6c0,2.5-2,4.5-4.5,4.5c-2.5,0-4.5-2-4.5-4.5V82
			c0-2.5,2-4.5,4.5-4.5c2.5,0,4.5,2,4.5,4.5V95.6z M100.5,81.7l-3.2,14.1c-0.5,2.4-3,4.3-5.5,4.3h-1.1c-2.5,0-4.1-1.9-3.6-4.3
			l3.2-14.1c0.5-2.4,3-4.3,5.5-4.3h1.1C99.4,77.4,101,79.3,100.5,81.7z M72.2,47.4c0.7,0.3,1.4,0.5,2.2,0.5c0.8,0,1.5-0.2,2.2-0.5
			l12.5,14.1h9.1L80.1,41.1H80c-0.5-2.6-2.8-4.5-5.5-4.5c-2.8,0-5,1.9-5.5,4.5h-0.1L50.6,61.6h9.1L72.2,47.4z"/>
	</g>
</g>
</svg>
