<svg xmlns:svg="http://www.w3.org/2000/svg" xmlns="http://www.w3.org/2000/svg" viewBox="0 0 1052.2375 1052.5" height="186" width="186" version="1.1" class="ico-case">
    <g transform="matrix(1.25,0,0,-1.25,0,1052.5)" id="g10">
        <path d="m 333.76,833.15 -15.22,-3.58 -15.07,-4.19 0,0 -15.58,-4.96 -15.41,-5.5 0,0 -15.12,-6 -14.9,-6.52 0,0 -13.85,-6.71 -13.57,-7.27 0,0 -14.76,-8.73 -14.39,-9.33 -13.98,-9.93 -13.55,-10.51 -13.1,-11.06 0,0 -12.81,-11.75 -12.31,-12.25 -11.82,-12.74 -11.29,-13.21 -10.76,-13.64 0,0 -10.24,-14.13 -9.66,-14.53 -9.07,-14.9 -8.47,-15.26 -7.85,-15.58 0,0 -7.18,-15.8 -6.52,-16.08 -5.87,-16.33 -5.19,-16.56 -4.52,-16.75 0,0 -3.15,-14.22 -2.44,-14.35 -1.74,-14.46 0,0 L 2.94,458.66 2,440.97 1.54,423.26 l 0,0 0.03,-17.49 0.52,-17.48 1,-17.46 0,0 1.36,-13.7 2.12,-13.61 2.88,-13.47 0,0 5.16,-19.37 6.02,-19.12 6.86,-18.83 7.69,-18.51 8.5,-18.15 0,0 9.21,-17.57 10,-17.12 10.78,-16.65 11.53,-16.14 12.25,-15.59 0,0 12.81,-14.83 13.48,-14.22 14.12,-13.59 14.74,-12.91 15.32,-12.22 0,0 15.72,-11.36 16.24,-10.59 16.72,-9.81 17.18,-8.99 17.59,-8.17 0,0 20.89,-8.55 21.24,-7.62 0,0 12.88,-4.03 13.04,-3.5 13.17,-2.97 0,0 13.43,-2.46 13.51,-1.93 13.59,-1.39 0,0 23.23,-1.44 23.28,-0.48 0,0 16.96,0.24 16.95,0.73 16.92,1.23 0,0 14.82,1.62 14.75,2.25 14.63,2.89 0,0 14.22,3.45 14.05,4.08 13.86,4.69 0,0 15.04,5.74 14.85,6.24 14.63,6.73 0,0 17.33,8.67 17.05,9.23 0,0 14.2,8.49 13.74,9.21 0,0 13.39,10.01 12.86,10.68 0,0 14.82,13.36 14.39,13.81 0,0 12.74,13.15 12.13,13.72 11.51,14.24 0,0 10.91,14.82 10.26,15.29 9.57,15.72 0,0 8.97,16.31 8.25,16.68 7.52,17.02 0,0 6.9,17.62 6.16,17.89 5.42,18.12 0,0 3.07,12.57 2.32,12.72 1.55,12.84 0,0 2,27.07 1.09,27.12 0,0 0.17,27.48 -0.77,27.47 0,0 -0.98,13.83 -1.69,13.76 -2.39,13.66 0,0 -3.81,17.01 -4.53,16.82 -5.24,16.62 -5.94,16.38 -6.63,16.11 -7.31,15.81 -7.98,15.49 0,0 -10.26,17.9 -11.1,17.4 -11.91,16.85 -12.7,16.27 -13.46,15.64 -14.18,14.99 0,0 -14.83,14.26 -15.5,13.54 -16.12,12.78 -16.71,12.01 -17.26,11.19 -17.78,10.37 0,0 -15.32,8.02 -15.65,7.35 -15.95,6.66 -16.23,5.97 -16.47,5.26 -16.68,4.55 -16.86,3.82 0,0 -12.61,2.27 -12.7,1.69 -12.76,1.11 0,0 -24.64,1.17 -24.66,0.36 0,0 -24.55,-0.44 -24.52,-1.25 0,0 -12.47,-1.15 -12.41,-1.74 -12.31,-2.33" />
        <path d="m 458.85,612.02 6.66,-8.39 6.86,-8.24 0,0 25.24,-29.27 0,0 29.66,-33.73 0,0 30.58,-34.09 11.32,-12.51 -27.8,0 -27.81,0 -34.77,39.67 0,0 -15.57,17.06 -16.23,16.43 0,0 -3.82,3.07 -4.34,2.27 -4.69,1.41 -4.87,0.49 0,0 -4.88,-0.45 -4.7,-1.38 -4.35,-2.24 -3.84,-3.03 0,0 -16.38,-16.31 -15.71,-16.95 -35.68,-40.04 -27.76,0 -27.77,0 13.72,14.78 0,0 14.69,16.24 0,0 33.69,38.3 0,0 33.77,38.63 0,0 21.6,25.1 0,0 3.8,3.96 4.25,3.48 4.63,2.94 0,0 4.18,1.77 4.45,0.85 4.53,-0.1 0,0 4.83,-1.07 4.57,-1.93 4.14,-2.73 0,0 4.96,-4.29 4.62,-4.67 4.22,-5.03" />
        <path d="m 651.99,451.94 1.4,-2.2 1.08,-2.38 0,0 2.08,-6.65 0,0 1.42,-7.44 0,0 0.47,-7.15 0,0 -0.16,-4.45 -0.5,-4.43 0,0 -0.77,-3.46 -1.27,-3.31 0,0 -1.73,-3.08 -2.16,-2.79 0,0 -3.04,-3.14 -3.28,-2.91 0,0 -4.17,-4.02 -3.46,-4.66 0,0 -3.55,-6.31 -3.01,-6.59 0,0 -3.91,-10.33 -3.43,-10.51 0,0 -11.17,-38.25 0,0 -8.93,-30.08 0,0 -3.99,-12.29 -4.29,-12.19 0,0 -7.35,-18.69 0,0 -2.34,-4.53 -3.01,-4.1 -10.12,-11.77 -137.25,0 -137.25,0 -10.12,11.77 0,0 -3.01,4.1 -2.34,4.53 0,0 -7.35,18.69 0,0 -4.29,12.19 -3.99,12.29 0,0 -8.93,30.08 0,0 -11.16,38.25 0,0 -3.44,10.51 -3.91,10.33 0,0 -3.01,6.59 -3.55,6.31 0,0 -3.46,4.66 -4.17,4.02 0,0 -3.35,3.14 -2.91,3.54 -2.43,3.89 -1.89,4.18 0,0 -1.82,6.2 -0.88,6.4 0.07,6.46 0,0 1.01,6.07 1.96,5.83 2.86,5.45 0,0 2.49,3.31 2.99,2.86 3.42,2.34 3.76,1.74 0,0 2.72,0.74 2.8,0.27 0,0 59.21,0.51 0,0 67.36,0.28 0,0 78.67,-0.14 0,0 129.58,-0.72 0,0 23.41,-0.39 23.41,-0.85 0,0 12.44,-0.85 12.39,-1.41 0,0 3.51,-0.97 3.12,-1.87 2.52,-2.62" />
        <path d="m 299.99,390.92 -1.23,-0.94 -1.07,-1.13 0,0 -2.03,-3.13 0,0 -1.47,-3.64 0,0 -0.64,-3.6 0,0 -0.1,-5.35 0.36,-5.34 0.81,-5.29 0,0 3.45,-16.82 3.73,-16.76 0,0 4.02,-16.76 4.26,-16.69 0,0 1.48,-4.66 1.94,-4.5 2.36,-4.28 0,0 2.68,-3.77 3.16,-3.39 3.56,-2.94 3.93,-2.46 0,0 4.2,-1.91 4.41,-1.34 4.55,-0.75 4.61,-0.15 0,0 3.93,0.48 3.79,1.12 3.54,1.74 3.21,2.32 0,0 2.48,2.66 1.86,3.12 1.16,3.45 0.39,3.62 0,0 -0.27,7.81 -0.81,7.78 -1.34,7.7 0,0 -3.87,17.01 -4.42,16.88 0,0 -4.84,16.5 -5.26,16.36 0,0 -1.91,4.44 -2.62,4.06 -3.25,3.57 0,0 -4.01,3.13 -4.49,2.38 0,0 -5.24,1.8 -5.43,1.08 0,0 -5.39,0.32 -5.38,-0.44 0,0 -4.57,-1.19 -4.23,-2.1" />
        <path d="m 419.36,388.36 -2.66,-2.46 -2.03,-3.01 0,0 -1.7,-3.96 -1.13,-4.15 0,0 -1.08,-6.66 -0.62,-6.72 0,0 -1.18,-25.49 0,0 -0.28,-17.45 0.33,-17.45 0,0 0.61,-6.64 1.35,-6.54 2.07,-6.34 0,0 2.09,-4.02 2.92,-3.46 3.61,-2.73 0,0 4.37,-2.11 4.68,-1.29 4.84,-0.43 0,0 4.84,0.43 4.68,1.29 4.37,2.11 0,0 3.61,2.73 2.92,3.46 2.09,4.02 0,0 2.07,6.34 1.35,6.54 0.61,6.64 0,0 0.33,17.45 -0.28,17.45 0,0 -1.18,25.49 0,0 -0.62,6.72 -1.08,6.66 0,0 -1.13,4.15 -1.7,3.96 0,0 -2.03,3.01 -2.66,2.46 0,0 -3.92,2.47 0,0 -4.48,2.09 0,0 -4.34,1.44 0,0 -3.45,0.45 0,0 -3.45,-0.45 0,0 -4.34,-1.44 0,0 -4.48,-2.09 0,0 -3.92,-2.47" />
        <path d="m 532.37,385.94 -3.25,-3.57 -2.62,-4.06 -1.91,-4.44 0,0 -5.26,-16.36 -4.84,-16.5 0,0 -4.42,-16.88 -3.87,-17.01 0,0 -1.34,-7.7 -0.81,-7.78 -0.27,-7.81 0,0 0.39,-3.62 1.16,-3.45 1.86,-3.12 2.49,-2.66 0,0 3.2,-2.32 3.54,-1.74 3.79,-1.12 3.93,-0.48 0,0 4.61,0.15 4.55,0.75 4.42,1.34 4.19,1.91 0,0 3.93,2.46 3.57,2.94 3.15,3.39 2.68,3.77 0,0 2.36,4.28 1.94,4.5 1.48,4.66 0,0 4.26,16.69 4.02,16.76 0,0 3.73,16.76 3.45,16.82 0,0 0.81,5.29 0.36,5.34 -0.1,5.35 0,0 -0.47,2.92 -1.03,2.76 -1.56,2.51 -2.02,2.16 0,0 -3.6,2.6 -4.02,1.89 -4.3,1.13 0,0 -5.05,0.44 -5.07,-0.33 -4.96,-1.09 0,0 -4.74,-1.83 -4.4,-2.53 -3.96,-3.17" />
    </g>
</svg>
