<?xml version="1.0" encoding="utf-8"?>
<!-- Generator: Adobe Illustrator 18.1.1, SVG Export Plug-In . SVG Version: 6.00 Build 0)  -->
<svg version="1.1" id="Layer_1" xmlns="http://www.w3.org/2000/svg" xmlns:xlink="http://www.w3.org/1999/xlink" x="0px" y="0px"
	 viewBox="0 0 32 32" enable-background="new 0 0 32 32" xml:space="preserve">
	<g>
		<path fill-rule="evenodd" clip-rule="evenodd" fill="#FFFFFF" d="M16,0C7.2,0,0,7.2,0,16c0,8.8,7.2,16,16,16c8.8,0,16-7.2,16-16
			C32,7.2,24.8,0,16,0z M24.3,14.8L17,22c-1.4,1.4-3.3,1.7-4.3,0.8c0,0,0,0,0,0c-0.2-0.1-0.4-0.2-0.6-0.4L7.7,18
			c-0.8-0.8-0.8-2.2,0-3c0.8-0.8,2.2-0.8,3.1,0l3.2,3.2l6.8-6.8c1.4-1.4,3.3-1.7,4.3-0.8C26,11.5,25.7,13.4,24.3,14.8z"/>
	</g>
</svg>
