<svg xmlns:svg="http://www.w3.org/2000/svg" xmlns="http://www.w3.org/2000/svg" viewBox="0 0 1051.9875 1052.5" height="186" width="186" version="1.1" class="ico-pen">
    <g transform="matrix(1.25,0,0,-1.25,0,1052.5)" id="g10">
        <path d="m 333.86,833.36 -14.27,-3.34 -14.15,-3.87 -13.98,-4.4 0,0 -14.62,-5.15 -14.44,-5.61 -14.26,-6.06 0,0 -13.86,-6.42 -13.66,-6.87 -13.43,-7.3 0,0 -12.08,-7.14 -11.78,-7.64 -11.45,-8.12 0,0 -11.39,-8.94 -10.89,-9.54 0,0 -13.58,-12.92 -13.24,-13.26 0,0 -13.04,-13.75 -12.68,-14.09 0,0 -9.78,-11.72 -9.2,-12.18 0,0 -10.67,-15.69 -9.9,-16.18 -9.09,-16.65 -8.28,-17.07 0,0 -7.71,-18.02 -6.92,-18.34 -6.1,-18.63 -5.27,-18.88 0,0 -4.43,-19.1 -3.58,-19.27 -2.72,-19.42 -1.87,-19.51 0,0 -0.93,-18.97 0,-18.98 0.92,-18.96 1.84,-18.9 0,0 2.57,-17.88 3.31,-17.75 4.06,-17.6 4.79,-17.41 5.51,-17.19 6.24,-16.95 6.94,-16.67 0,0 7.56,-16.19 8.26,-15.85 8.94,-15.47 9.6,-15.07 10.24,-14.64 10.87,-14.19 11.48,-13.7 0,0 12.11,-13.25 12.67,-12.72 13.21,-12.16 13.72,-11.58 14.2,-10.98 14.67,-10.36 15.1,-9.72 0,0 15.77,-9.24 16.14,-8.59 16.48,-7.92 16.79,-7.25 17.06,-6.55 17.33,-5.85 17.54,-5.14 0,0 14.25,-3.55 14.39,-2.98 14.49,-2.39 14.58,-1.81 0,0 20.47,-1.64 20.52,-0.67 20.54,0.28 0,0 20.69,1.24 20.62,2.21 20.49,3.15 0,0 14.84,2.93 14.71,3.48 14.57,4.04 14.41,4.58 0,0 19.13,7.01 18.77,7.93 18.36,8.83 17.91,9.72 17.41,10.57 0,0 16.89,11.41 16.31,12.21 15.7,12.99 15.05,13.74 14.36,14.45 0,0 13.73,15.22 12.98,15.86 12.19,16.47 11.39,17.04 10.55,17.57 0,0 9.8,18.23 8.93,18.66 8.05,19.07 7.15,19.42 6.23,19.73 0,0 3.57,13.74 2.81,13.92 2.02,14.05 0,0 1.84,18.08 1.36,18.13 0.87,18.16 0,0 0.38,18.34 -0.11,18.35 -0.61,18.34 0,0 -1.06,14.76 -1.82,14.69 -2.55,14.58 0,0 -4.53,19.92 -5.5,19.68 -6.45,19.39 -7.39,19.05 -8.32,18.66 -9.21,18.24 0,0 -10.11,17.8 -10.96,17.29 -11.79,16.73 -12.58,16.14 -13.36,15.52 -14.09,14.84 0,0 -14.84,14.19 -15.51,13.45 -16.15,12.68 -16.74,11.89 -17.29,11.07 -17.81,10.21 0,0 -18.34,9.38 -18.76,8.48 -19.15,7.58 -19.49,6.64 -19.79,5.71 -20.04,4.75 0,0 -11.9,2.21 -11.99,1.6 -12.05,1 0,0 -24.74,1.04 -24.76,0.28 0,0 -24.84,-0.48 -24.8,-1.24 0,0 -12.26,-1.1 -12.19,-1.69 -12.1,-2.29" />
        <path d="m 548.65,644.38 16.83,-10.41 16.59,-10.81 0,0 6.41,-4.61 6.09,-5.04 5.73,-5.43 0,0 3.65,-4.18 3.14,-4.58 2.57,-4.91 0,0 1.81,-4.91 1.1,-5.12 0.37,-5.22 0,0 -0.38,-5.75 -1.12,-5.65 -1.85,-5.45 0,0 -5.65,-12.71 -6.28,-12.41 0,0 -6.74,-11.95 -7.21,-11.67 0,0 -1.64,-1.95 -2.07,-1.47 -2.38,-0.91 -2.52,-0.28 0,0 -1.95,0.27 -1.81,0.76 0,0 -21.05,12.17 0,0 -24.3,14.47 0,0 -27.82,17.16 -71.58,44.75 17.67,27.32 0,0 7.15,10.45 7.71,10.04 8.25,9.62 0,0 4.2,3.94 4.8,3.19 5.25,2.37 5.58,1.47 0,0 6.02,0.61 6.04,-0.28 5.93,-1.18 5.7,-2.04 0,0 12.85,-6.04 12.59,-6.56 12.32,-7.07" />
        <path d="m 492.93,533.37 26.83,-17.04 0,0 22.6,-14.98 0,0 19.33,-13.24 0,0 0.9,-1.02 0.33,-1.32 0,0 -0.2,-1.48 -0.58,-1.37 0,0 -18.81,-31.38 0,0 -21.53,-35.47 0,0 -25.56,-41.38 0,0 -32.01,-50.81 0,0 -10.32,-15.78 -10.66,-15.56 0,0 -15.25,-21.02 0,0 -1.44,-1.23 -1.81,-0.52 -1.87,0.28 0,0 -8.85,3.9 -8.44,4.74 0,0 -58.94,37.24 0,0 -63.29,40.43 0,0 -1.2,1.08 -0.79,1.41 -0.29,1.59 0,0 0.26,3.26 0.88,3.14 1.46,2.92 0,0 64.31,101.64 0,0 65.3,102.86 0,0 1.36,1.51 1.78,0.97 2.01,0.34 0,0 1.65,-0.22 1.54,-0.64 0,0 20.54,-11.98 0,0 23.6,-14.12 0,0 27.16,-16.75" />
        <path d="m 339.35,286.12 26.44,-16.74 0,0 22.27,-14.55 0,0 19.36,-12.93 0,0 0.66,-0.74 0.24,-0.96 0,0 -0.23,-0.86 -0.64,-0.62 0,0 -7.74,-4.14 0,0 -9.47,-4.64 0,0 -11.25,-4.98 -29.32,-12.47 -14.97,17.05 0,0 -6.41,6.62 -7.04,5.96 0,0 -8.17,5.78 -8.6,5.14 0,0 -8.4,4.17 -8.71,3.49 0,0 -4.67,1.37 -4.79,0.86 -4.86,0.31 0,0 -2.93,0.37 -2.78,1.03 0,0 -1.9,1.52 -1.14,2.15 0,0 -0.89,3.96 -0.36,4.05 0,0 -0.23,21.5 0,0 0.27,13.12 0,0 0.84,10.79 0,0 1.17,8.22 0,0 0.29,0.58 0.57,0.31 0.64,-0.05 0,0 2.78,-1.4 0,0 20.15,-12.35 0,0 23.11,-14.27 0,0 26.71,-16.65" />
        <path d="m 311.64,233.1 5.96,-4.84 0,0 5.75,-5.42 0,0 4.78,-5.2 0,0 1.46,-1.9 1.25,-2.06 0,0 0.65,-2.12 -0.18,-2.21 -1,-1.99 0,0 -3.41,-3.68 -4.03,-3 0,0 -8.1,-4.58 -8.41,-3.98 0,0 -33.31,-13.86 0,0 -1.03,-0.14 -0.98,0.37 -0.69,0.78 0,0 -1.08,2.6 -0.66,2.73 0,0 -0.67,5.17 -0.32,5.2 0,0 -0.25,18.23 0,37.22 14.78,-3.13 0,0 3.39,-0.86 3.32,-1.13 0,0 8.05,-3.47 0,0 8.02,-4.26 0,0 6.71,-4.47" />
        <path d="m 430.14,519.22 -5.96,-7.2 -5.57,-7.51 -5.14,-7.8 0,0 -38.77,-63.41 0,0 -40.79,-68.12 0,0 -1.58,-3.3 -0.98,-3.54 -0.32,-3.65 0,0 0.33,-3.03 0.98,-2.89 0,0 1.53,-2.33 2.13,-1.82 0,0 2.62,-1.21 2.85,-0.47 0,0 3.24,0.22 3.14,0.82 0,0 1.85,1.03 1.45,1.54 0,0 15.55,22.92 0,0 17.69,26.92 0,0 19.95,31.55 0,0 25.56,41.66 0,0 7.12,12.22 6.74,12.44 0,0 3.98,8.02 3.65,8.17 0,0 0.54,2.23 -0.18,2.28 -0.9,2.11 0,0 -2.3,3.22 -2.67,2.93 0,0 -2.26,1.56 -2.65,0.73 0,0 -2.68,-0.19 -2.45,-1.09 0,0 -3.01,-2.32 -2.69,-2.69" />
        <path d="m 466.21,460.29 -52.34,-82.73 0,0 -10.37,-17.08 -9.84,-17.39 0,0 -4.75,-9.51 -4.06,-9.82 0,0 -0.51,-2.38 0.17,-2.43 0.86,-2.28 1.46,-1.95 0,0 3.22,-2.55 0,0 3.76,-1.76 0,0 3.71,-0.76 0,0 1.55,0.05 1.5,0.4 0,0 3.83,1.96 3.33,2.73 2.68,3.37 0,0 46.06,73.33 0,0 45,72.92 0,0 2.29,4.58 1.46,4.92 0.59,5.09 0,0 -0.1,2.14 -0.41,2.1 0,0 -0.7,1.71 -1.07,1.5 0,0 -1.42,1.26 -1.67,0.92 0,0 -2.17,0.75 -2.26,0.47 0,0 -3.08,-0.01 -2.95,-0.87 0,0 -3.16,-1.79 -2.79,-2.33 0,0 -3.78,-4.1 -3.38,-4.42 0,0 -10.66,-16.04" />
    </g>
</svg>
