<?xml version="1.0" encoding="utf-8"?>
<!-- Generator: Adobe Illustrator 18.1.1, SVG Export Plug-In . SVG Version: 6.00 Build 0)  -->
<svg version="1.1" id="Layer_1" xmlns="http://www.w3.org/2000/svg" xmlns:xlink="http://www.w3.org/1999/xlink" x="0px" y="0px"
	 viewBox="0 0 135.6 135.6" enable-background="new 0 0 135.6 135.6" xml:space="preserve">
<g id="Shape_1_copy">
	<g>
		<circle fill-rule="evenodd" clip-rule="evenodd" fill="#618ECA" cx="67.8" cy="67.7" r="67.8"/>
	</g>
</g>
<g id="Shape_3_1_">
	<g>
		<path fill-rule="evenodd" clip-rule="evenodd" fill="#FFFFFF" d="M49.1,97.3c-2-1.3-4.3-1.8-6.5-1.7L43,107l10.4-4.6
			C52.6,100.3,51.1,98.6,49.1,97.3z M42.5,93c2.7,0,5.4,0.6,7.9,2.2c2.5,1.5,4.3,3.7,5.4,6.1l10.1-4.5L42.1,81.9L42.5,93z
			 M44.7,77.7l23.9,14.9l22.1-35.4L66.8,42.3L44.7,77.7z M80.4,56.6c1.1,0.7,1.5,2.1,0.9,3.2L65.6,85c-0.7,1-2.1,1.3-3.2,0.6
			c-1.1-0.7-1.5-2.1-0.9-3.2l15.7-25.2C77.9,56.2,79.3,55.9,80.4,56.6z M71.8,51.2c1.1,0.7,1.5,2.1,0.8,3.2L56.9,79.6
			c-0.7,1-2.1,1.3-3.2,0.6c-1.1-0.7-1.5-2.1-0.8-3.2l15.7-25.2C69.2,50.8,70.7,50.5,71.8,51.2z M95,36.5l-11.6-7.2
			c-3.4-2.1-7.9-1.1-10,2.3l-4.8,7.7l23.9,14.9l4.8-7.7C99.5,43.1,98.4,38.6,95,36.5z"/>
	</g>
</g>
</svg>
