<?xml version="1.0" encoding="utf-8"?>
<!-- Generator: Adobe Illustrator 18.1.1, SVG Export Plug-In . SVG Version: 6.00 Build 0)  -->
<svg version="1.1" id="Layer_1" xmlns="http://www.w3.org/2000/svg" xmlns:xlink="http://www.w3.org/1999/xlink" x="0px" y="0px"
	 viewBox="0 0 137.7 137.7" enable-background="new 0 0 137.7 137.7" xml:space="preserve">
<g id="Shape_1_copy_2">
	<g>
		<circle fill-rule="evenodd" clip-rule="evenodd" fill="#DA4849" cx="68.9" cy="68.8" r="68.9"/>
	</g>
</g>
<g id="Shape_6">
	<g>
		<path fill-rule="evenodd" clip-rule="evenodd" fill="#FFFFFF" d="M96.4,38.2H42.5c-4.6,0-8.3,3.7-8.3,8.3v31.1
			c0,4.6,3.7,8.3,8.3,8.3h18.7v6.2h-8.3c-1.1,0-2.1,0.9-2.1,2.1v4.1h37.3v-4.1c0-1.1-0.9-2.1-2.1-2.1h-8.3v-6.2h18.7
			c4.6,0,8.3-3.7,8.3-8.3V46.5C104.7,41.9,101,38.2,96.4,38.2z M96.4,75.5c0,1.1-0.9,2.1-2.1,2.1H44.5c-1.1,0-2.1-0.9-2.1-2.1v-27
			c0-1.1,0.9-2.1,2.1-2.1h49.7c1.2,0,2.1,0.9,2.1,2.1V75.5z"/>
	</g>
</g>
</svg>
