<svg xmlns:svg="http://www.w3.org/2000/svg" xmlns="http://www.w3.org/2000/svg" viewBox="0 0 1052.3 1052.5" height="186" width="186" version="1.1" class="ico-wath">
    <g transform="matrix(1.25,0,0,-1.25,0,1052.5)" id="g10">
        <path d="m 333.75,833.13 -15.23,-3.58 -15.07,-4.19 0,0 -15.58,-4.96 -15.4,-5.5 0,0 -15.12,-6 -14.9,-6.53 0,0 -13.86,-6.7 -13.56,-7.27 0,0 -14.76,-8.73 -14.39,-9.33 -13.98,-9.93 -13.55,-10.51 -13.1,-11.06 0,0 -12.8,-11.75 -12.32,-12.25 -11.82,-12.74 -11.29,-13.2 -10.75,-13.65 0,0 -10.24,-14.13 -9.66,-14.52 -9.08,-14.9 -8.46,-15.26 -7.85,-15.58 0,0 -7.18,-15.8 -6.52,-16.08 -5.87,-16.33 -5.19,-16.55 -4.52,-16.76 0,0 -3.15,-14.21 -2.44,-14.35 -1.74,-14.46 0,0 L 2.94,458.66 2,440.97 1.54,423.26 l 0,0 0.03,-17.49 0.52,-17.48 1,-17.46 0,0 1.36,-13.7 2.12,-13.61 2.88,-13.47 0,0 5.16,-19.36 6.02,-19.12 6.86,-18.83 7.69,-18.51 8.5,-18.15 0,0 9.21,-17.57 10,-17.12 10.78,-16.65 11.52,-16.13 12.26,-15.59 0,0 12.8,-14.84 13.48,-14.22 14.12,-13.58 14.74,-12.91 15.32,-12.22 0,0 15.72,-11.36 16.23,-10.59 16.73,-9.81 17.18,-8.99 17.59,-8.16 0,0 20.88,-8.56 21.24,-7.62 0,0 12.89,-4.03 13.03,-3.49 13.17,-2.97 0,0 L 346,7.2 359.51,5.27 373.1,3.88 l 0,0 23.23,-1.43 23.28,-0.49 0,0 16.96,0.24 16.94,0.73 16.92,1.23 0,0 14.83,1.62 14.74,2.26 14.63,2.88 0,0 14.22,3.45 14.05,4.08 13.86,4.69 0,0 15.04,5.75 14.85,6.24 14.63,6.72 0,0 17.33,8.67 17.04,9.23 0,0 14.2,8.49 13.75,9.21 0,0 13.39,10.01 12.86,10.68 0,0 14.81,13.36 14.4,13.8 0,0 12.7,13.13 12.11,13.68 11.48,14.21 0,0 10.89,14.76 10.22,15.22 9.55,15.66 0,0 8.97,16.3 8.26,16.67 7.53,17.01 0,0 6.97,17.72 6.24,17.99 5.51,18.23 0,0 3.08,12.44 2.31,12.6 1.54,12.73 0,0 1.98,27.12 1.06,27.17 0,0 0.14,27.61 -0.79,27.6 0,0 -1,13.92 -1.7,13.85 -2.41,13.75 0,0 -3.81,16.97 -4.52,16.8 -5.24,16.6 -5.94,16.35 -6.63,16.09 -7.3,15.79 -7.98,15.46 0,0 -10.27,17.89 -11.1,17.38 -11.91,16.84 -12.7,16.25 -13.46,15.64 -14.18,14.97 0,0 -14.83,14.26 -15.5,13.53 -16.12,12.78 -16.71,12 -17.27,11.2 -17.77,10.36 0,0 -15.31,8.01 -15.64,7.35 -15.95,6.66 -16.21,5.97 -16.46,5.26 -16.68,4.54 -16.85,3.81 0,0 -12.61,2.27 -12.69,1.7 -12.76,1.11 0,0 -24.64,1.17 -24.66,0.36 0,0 -24.55,-0.45 -24.52,-1.25 0,0 -12.47,-1.14 -12.41,-1.74 -12.3,-2.33" />
        <path d="m 624.75,593.13 15.46,-15.46 0,-114.63 0,-114.62 -15.46,-15.47 -15.47,-15.46 -66.41,0 -66.41,0 0,-18.2 0,-18.19 23.05,0 0,0 10.16,-0.29 10.14,-0.87 0,0 4.13,-0.78 3.97,-1.38 3.73,-1.95 0,0 2.65,-2.08 2.14,-2.6 1.51,-3.01 0,0 1.22,-3.98 0.74,-4.09 0.24,-4.15 0,-15.76 -115.98,0 -115.99,0 0,15.76 0,0 0.24,4.15 0.74,4.09 1.22,3.98 0,0 1.51,3.01 2.14,2.6 2.65,2.08 0,0 3.73,1.95 3.97,1.38 4.13,0.78 0,0 10.14,0.87 10.16,0.29 23.05,0 0,18.19 0,18.2 -66.41,0 -66.41,0 -15.47,15.46 -15.46,15.47 0,114.62 0,114.63 15.46,15.46 15.47,15.47 185.13,0 185.12,0 15.47,-15.47" />
        <path d="m 263.59,553.11 -2.21,-2.69 -1.65,-3.05 -1.04,-3.32 -0.38,-3.45 0,0 -0.49,-77.56 0,0 0.49,-77.55 0,0 0.38,-3.45 1.04,-3.32 1.65,-3.06 2.21,-2.68 0,0 2.86,-2.35 3.27,-1.76 3.55,-1.08 3.69,-0.38 0,0 147.2,-0.29 0,0 147.19,0.29 0,0 3.69,0.38 3.55,1.08 3.27,1.76 2.86,2.35 0,0 2.21,2.68 1.65,3.06 1.04,3.32 0.38,3.45 0,0 0.49,77.55 0,0 -0.49,77.56 0,0 -0.38,3.45 -1.04,3.32 -1.65,3.05 -2.21,2.69 0,0 -2.86,2.35 -3.27,1.75 -3.55,1.09 -3.69,0.38 0,0 -147.19,0.29 0,0 -147.2,-0.29 0,0 -3.69,-0.38 -3.55,-1.09 -3.27,-1.75 -2.86,-2.35" />
    </g>
</svg>
